<?xml version="1.0" encoding="utf-8"?>
<!-- Svg Vector Icons : http://www.onlinewebfonts.com/icon -->
<!DOCTYPE svg PUBLIC "-//W3C//DTD SVG 1.1//EN" "http://www.w3.org/Graphics/SVG/1.1/DTD/svg11.dtd">
<svg version="1.1" xmlns="http://www.w3.org/2000/svg" xmlns:xlink="http://www.w3.org/1999/xlink" x="0px" y="0px" viewBox="0 0 256 256" enable-background="new 0 0 256 256" xml:space="preserve">
<metadata> Svg Vector Icons : http://www.onlinewebfonts.com/icon </metadata>
<g><g><g><path fill="#000000" d="M85.3,128c0,6.9,5.6,12.5,12.5,12.5s12.5-5.6,12.5-12.5s-5.6-12.5-12.5-12.5S85.3,121.1,85.3,128z M145.6,128c0,6.9,5.6,12.5,12.5,12.5c6.9,0,12.5-5.6,12.5-12.5c0-6.9-5.6-12.5-12.5-12.5C151.2,115.5,145.6,121.1,145.6,128z M10,225.9C10,237,19,246,30.1,246h195.8c11.1,0,20.1-9,20.1-20.1V30.1C246,19,237,10,225.9,10H30.1C19,10,10,19,10,30.1V225.9L10,225.9z M60.2,128c0-37.4,30.3-67.8,67.8-67.8s67.8,30.3,67.8,67.8s-30.3,67.8-67.8,67.8S60.2,165.4,60.2,128z"/></g></g></g>
</svg>